<?xml version="1.0" encoding="UTF-8"?>
<svg version="1.1" viewBox="0 0 2048 2048" width="60" height="60" xmlns="http://www.w3.org/2000/svg">
<path transform="translate(1181,288)" d="m0 0 11 1 12 6 7 9 3 8v12l-4 10-7 8-8 5-37 15-19 8-11 6-11 8-13 13-9 14-5 11-4 15-1 10v569h126l22 1 17 3 21 7 15 8 14 10 13 12 10 12 10 16 9 21 4 16 2 24-2 21-4 18-6 15-7 13-9 13-11 12-10 9-10 7-6 3 2 4 11 16 8 16 7 21 3 19v23l-4 22-7 19-8 15-8 11-9 10-6 7-12 9-9 6h-2l3 5 7 9 9 15 8 20 4 18 1 8v24l-3 19-6 18-11 21-11 14-9 10-12 10-11 7-6 3 2 5 7 9 10 19 6 18 3 15 1 8v20l-3 20-7 21-9 17-9 13-2 3 506 1 12 4 7 6 5 8 2 7v11l-4 9-5 7-9 6-10 2h-541l-22-2-21-5-20-8-534-1-21-2-21-5-16-6-17-9-19-13-10-7-15-9-20-9-24-8-21-5-33-5-9-1-1 70-1 12-6 12-9 8-6 2-7 1h-296l-11-4-8-7-6-10v-868l6-10 7-7 8-4 11-1h287l12 2 9 6 6 7 3 8 1 11v26l-1 8 5-3 12-11 11-9 12-11 13-10 12-10 13-10 14-11 48-36 38-29 14-12 11-9 7-7 8-7 18-18 7-8 10-12 10-14 11-18 8-15 8-19 7-21 6-25 4-26 2-26 1-68 3-16 7-19 9-16 10-13h2l2-4 11-10 15-10 12-6 15-5 16-3 18-1 20 2 18 5 17 8 13 9 13 11 9 10 10 15 7 16 6 18 8 29 11 47 8 43 5 39 3 39v68l-3 36-4 29-5 28-8 33-7 25-1 2h125v-576l3-20 5-17 7-17 8-14 9-12 9-11 14-13 17-12 21-11 36-15 23-9zm-416 277-13 4-11 7-10 9-6 9-6 17-1 5v63l-2 24-4 29-6 28-9 29-11 26-13 25-10 16-10 14-11 14-11 13-15 16-7 7-2 1v2l-4 2-9 9-11 9-10 9-28 22-13 10-32 24-21 16-12 9-14 11-16 13-10 8-28 24-16 15-32 32-1 2-1 106-1 11-4 10-7 7-8 4-3 1h-13l-10-4-5-4-6-10-2-11-1-204h-228l-1 1v790h229l1-231v-227l4-13 8-9 8-4 4-1h10l11 4 7 6 5 9 2 9v345l1 6 11 2 30 4 30 6 27 8 20 8 16 7 27 16 15 11 13 8 14 6 18 4h550l17-5 16-9 12-11 8-13 5-13 2-10v-17l-4-15-8-16-9-10-8-7-10-6-14-5-5-1-64-1-10-3-8-6-6-10-2-7 1-10 4-9 7-8 7-4 4-1 104-1 12-3 13-5 13-9 7-7 9-14 5-13 2-9v-19l-4-15-6-12-7-9-10-10-14-8-12-4-18-2h-54l-12-2-9-6-7-10-2-7v-8l3-10 6-8 10-6 4-1 100-1 13-2 11-4 11-6 10-8 10-12 7-16 3-13v-18l-4-15-7-14-11-13-13-9-11-5-11-3-32-1h-60l-18-1-10-5-6-7-4-9-1-4v-7l3-10 7-9 12-6 132-1 15-2 16-6 13-9 10-10 8-14 4-13 2-10v-9l-3-17-5-12-7-11-11-11-13-8-14-5-6-1-21-1h-342l-16-1-10-4-6-5-6-12-1-9 4-16 9-25 8-26 9-39 5-30 3-25 2-26v-60l-3-38-4-31-7-39-9-39-9-34-6-18-5-10-10-11-11-7-12-5-5-1z"/>
<path transform="translate(1519,153)" d="m0 0h34l18 3 20 6 25 10 77 32 96 40 137 57 35 15 16 9 12 8 14 12 12 13 13 19 8 16 8 24 4 19v1314l-6 26-6 17-8 16-8 12-8 10-9 10-8 7-13 10-16 9-12 6-18 6-18 4-20 2h-59l-9-3-8-6-6-8-2-6v-14l4-9 6-7 10-6 4-1 62-1 14-2 21-7 14-8 14-12 8-10 8-14 5-14 3-18v-1293l-3-17-5-14-6-11-7-9-6-7-10-8-11-7-25-11-41-17-149-62-43-18-31-13-29-12-33-14-24-9-14-3-18-1-16 2-17 5-33 14-27 11-41 17-38 16-34 14-7 2h-9l-11-4-7-6-5-8-2-6v-13l4-9 7-8 16-8 26-11 36-15 29-12 34-14 35-15 21-7 19-4z"/>
<path transform="translate(1514,983)" d="m0 0h16l10 5 7 8 4 9 1 6v68h16l18 3 14 5 11 6 11 8 12 11 8 10 8 14 6 15 3 12 1 7v16l-4 10-7 8-8 5-3 1h-15l-9-4-8-7-4-7-2-8-2-15-7-14-8-8-10-5-6-2h-90l-11 4-9 7h-2l-2 4-5 8-3 10-1 10v58l2 10 5 8 5 4 8 4 41 13 48 16 47 15 17 8 11 8 12 12 7 10 8 16 4 14 1 11v54l-2 17-7 21-8 15-10 13-5 6-8 7-12 9-16 8-15 5-24 4-1 67-2 10-6 9-7 6-8 3-10 1-13-4-7-6-4-6-3-9-1-72h-9l-20-4-15-6-16-9-13-11-7-7-11-15-9-17-5-16-3-20 1-13 3-8 8-9 10-5 5-1h7l10 3 6 4 6 7 4 11 3 19 5 12 8 10 9 7 10 5 8 2h71l11-3 11-6 9-8 7-12 3-11 1-6v-51l-4-10-6-7-14-6-95-31-32-10-18-8-10-6-11-9-9-11-8-14-5-12-3-15-1-21 1-63 4-18 5-12 9-16 10-11 5-5 9-8 16-9 16-6 16-3 17-1 1-73 5-10 4-5 10-6z"/>
<path transform="translate(1516,351)" d="m0 0h28l16 3 19 7 17 10 11 9 11 11 11 16 7 14 5 16 3 17v22l-2 14-5 16-8 16-7 11-9 11-7 7-12 9-14 8-19 7-12 3-9 1h-22l-16-3-13-4-17-8-11-8-11-9-11-12-10-16-7-15-4-13-2-11v-28l3-17 6-17 6-11 9-13 12-13 9-8 18-11 17-7 13-3zm4 60-10 3-11 6-10 9-7 10-4 10-2 8v16l3 11 6 12 9 10 10 7 14 5 5 1h13l12-3 14-7 10-9 8-13 4-15v-14l-2-10-7-14-11-12-11-7-9-3-5-1z"/>
</svg>
