<?xml version="1.0" encoding="UTF-8"?>
<svg version="1.1" viewBox="0 0 2048 2048" width="60" height="60" xmlns="http://www.w3.org/2000/svg">
<path transform="translate(1664,412)" d="m0 0 14 2 10 5 12 12 15 20 14 18 70 91 14 18 12 16 28 36 12 16 28 36 13 17 50 65 13 17 14 18 9 12 14 18 20 26 9 12 8 11 5 11v19l-5 10-8 10h-2l-1 3-11 9-10 9-11 9-30 26-8 7-13 11-28 24-10 9-11 9-15 13-10 9-11 9-10 9-11 9-6 7-18 38-13 27-11 23-16 34-16 33-11 23-17 36-17 35-9 20 8 16 6 14 5 17 3 21v22l-5 26-8 22-10 18-10 13-11 12-8 7-10 7-15 9-19 8-19 5-15 2-13 1-3 26-4 17-6 16-8 16-10 14-9 11-9 9-18 13-21 11-19 6-13 3-24 2-3 26-4 17-6 16-11 21-11 14-9 10-13 11-15 10-19 9-20 6-18 3-16 1v10l-3 21-4 15-6 15-10 19-11 14-9 10-13 11-15 10-19 9-19 6-19 3h-29l-18-3-17-5-18-8-11-7-12-9-10-9-5-4-4 1-24 24-17 13-17 10-18 7-22 5-8 1h-30l-17-3-17-5-23-11-14-10-14-12-10-11-11-16-8-16-6-16-4-16-1-11-19 2-18-1-22-4-20-7-19-10-14-10-15-14-12-15-8-13-8-17-5-15-4-22-1-16-5-1-18-2-18-4-15-5-21-11-12-9-10-9-11-11-11-15-10-19-6-16-4-17-2-14 1-33h-10l-19-5-15-6-17-9-14-10-20-20-10-14-6-10-8-19-6-23-2-26 1-16 3-16 8-23 8-16 7-10 7-9 3-4-1-4-10-14-33-44-10-14-27-36-28-38-12-16-14-19-12-16-8-11-21-28-13-12-8-7-28-24-15-13-14-12-11-9-11-10-11-9-10-9-11-9-11-10-11-9-11-10-8-7-13-11-8-7-10-9-6-10-3-7v-19l9-16 11-13 10-13 11-13 11-14 13-16 8-10 14-17 11-14 13-16 8-10 14-17 11-14 39-48 11-14 9-11 13-16 8-10 13-16 5-7h2l2-4 8-10 13-16 8-10 11-14 14-17 8-10 13-16 8-10 11-14 11-13 8-10 11-14 13-16 7-9 13-9 7-2h18l11 4 22 14 24 15 20 13 24 15 19 12 17 11 19 12 41 26 17 11 19 12 7 4 59 16 95 26 69 19 4 1h7l29-8 44-13 91-26 55-16 16-2 286-1 15-9 15-10 21-13 20-13 24-15 20-13 24-15 20-13 24-15 23-15 18-11 9-3zm-1236 94-5 5-11 14-11 13-11 14-13 16-12 15-11 14-11 13-11 14-9 11-13 16-11 14-11 13-10 13-11 13-11 14-13 16-9 11-11 14-14 17-11 14-14 17-7 9-14 17-20 25-9 11-8 10-13 16-12 15-5 6 2 4 9 7 11 10 8 7 11 9 11 10 11 9 30 26 8 7 14 12 13 11 11 9 4 1 6-8 10-12 27-33 28-34 11-13 10-13 9-10 10-13 11-13 11-14 8-9 8-10 14-17 8-10 14-17 12-14 7-9 13-16 9-11 11-13 9-11 13-16 18-22 12-14 11-14 18-22 10-12 9-11 8-10 6-7-5-5-24-15-15-10-26-16-23-15-24-15-15-10-21-13zm1225 1-10 7-18 11-44 28-19 12-23 15-20 12-18 12-8 4 2 5 8 9 11 14 14 18 10 13 11 14 13 16 20 26 12 15 11 14 8 10 10 13 12 15 10 13 22 28 12 15 10 13 22 28 12 15 10 13 22 28 13 16 10 13 11 14 21 27 4-1 12-11 10-8 14-12 12-11 11-9 14-12 15-13 14-12 11-9 11-10 13-10 1-5-9-11-50-65-14-18-12-16-28-36-13-17-12-16-12-15-12-16-10-13-14-18-50-65-14-18-15-20-11-14-10-13-9-12zm-497 132-19 1-53 15-69 20-162 47-5 2-12 22-12 21-15 26-15 27-14 25-14 24-14 25-12 21-28 50-11 19-7 14-3 9-1 7v13l4 15 6 12 8 10 12 9 13 6 7 2 17 1 16-4 14-7 12-11 7-10 14-25 10-17 15-27 15-26 15-27 20-35 13-23 9-16 8-11 9-7 11-4h21l198 14 18 2 10 4 6 4 13 12 51 51 5 6 8 7 123 123 5 6 7 6 5 6 8 7 67 67 6 7 8 7 54 54 3 4h2l2 4h2l1 3 8 7 39 39 6 7 6 5 22 22 3-4 9-20 11-22 11-24 8-16 16-34 15-31 10-21 11-23 14-30 2-4-14-18-22-28-8-10-11-14-14-18-11-14-8-10-66-84-13-16-12-16-13-16-10-13-12-15-11-14-12-16-10-12-13-17-20-25-14-18-22-28-8-10-11-14-8-11-180-1zm-492 6-11 13-8 10-36 44-12 14-11 14-14 17-9 11-11 13-11 14-11 13-13 16-12 14-11 14-13 16-12 14-8 10-9 11-13 16-14 17-10 12v2h-2l-11 14-13 16-12 14-8 10-9 11-13 16-28 34-8 10-11 13-7 9 6 9 12 16 13 18 10 13 9 12 14 19 13 18 10 13 9 12 28 38 16 21 15 20 4-2 13-10 16-9 14-6 17-5 20-3h21l16 2 17 4 16 6 17 9 16 12 3 3h2v2h2v2h2l2 4 9 10 10 15 9 19 5 15 4 16 2 1 19-3h23l20 3 15 4 18 8 14 8 14 11 10 9 11 14 9 14 8 17 5 15 3 15 2 25 3 1 21 2 16 3 18 6 19 10 14 10 13 12 10 11 9 14 8 16 6 16 4 18 1 8v33l-1 7v8l18 4 15 5 16 8 11 7 10 8 10 9 9 10 9 13 9 17 7 19 4 20 1 9v22l-3 20-6 20-5 12 1 5 14 12 10 7 12 5 10 2h15l16-4 10-5 10-8 8-9 7-14 3-12v-19l-3-12-8-15-12-13-19-19-7-8-65-65-7-11-3-12v-8l2-9 6-11 4-5 11-7 10-3h11l9 2 11 6 13 12 8 8 7 8 76 76 11 7 10 4 9 2h16l16-4 10-5 10-8 8-9 7-14 3-12v-20l-5-16-6-10-11-12-7-7-7-8-111-111-7-8-39-39-6-10-3-7-1-5v-11l4-12 6-9 7-6 11-5 4-1h14l12 4 9 7 6 5 7 8 92 92 7 8 66 66 10 7 8 4 9 3 6 1h16l12-3 16-8 12-11 7-11 5-14 1-5v-20l-5-16-6-10-9-10-25-25-7-8-110-110-7-8-94-94-7-8-10-10-7-12-2-6v-15l4-12 7-9 9-7 12-4h13l13 4 9 7 4 2 2 4 66 66 7 8 96 96 7 8 64 64 7 8 13 12 11 7 14 5 7 1h14l13-3 16-8 12-11 7-11 4-10 3-17-1-13-5-15-6-10-9-10-474-474-2-1-166-12h-13l-15 27-14 24-15 27-14 24-12 22-14 24-15 27-9 14-11 14-10 10-16 12-14 8-20 8-21 5-15 2h-19l-24-4-21-7-21-11-13-10-10-9-9-9-10-14-8-14-6-15-4-13-3-13-1-8v-28l4-22 6-18 8-16 12-22 14-24 15-27 28-49 15-27 14-24 11-20 10-17 15-27 13-23 7-13-35-10-66-18-15-4zm-125 705-12 2-12 5-11 7-7 7-2 1v2h-2v2h-2v2h-2v2h-2v2h-2v2h-2l-4 4v2h-2v2h-2v2h-2v2h-2v2h-2v2h-2v2h-2v2h-2v2h-2v2h-2v2h-2l-14 16-7 14-3 14v15l3 13 7 14 11 12 10 7 12 5 8 2h21l15-5 12-7 13-12 44-44 7-11 5-11 3-13v-16l-4-16-6-11-9-10-11-8-11-5-13-3zm172 117-12 2-12 5-11 7-105 105-6 10-5 14-1 5v17l3 12 8 16 9 10 10 7 10 5 13 3h18l16-5 14-9 7-7 6-5 6-7 6-5 6-7 6-5 6-7 6-5 6-7 6-5 6-7 6-5 6-7 6-5 5-5v-2l4-2v-2l3-1 10-13 6-13 3-12v-16l-4-16-6-11-6-8-9-8-11-6-8-3-10-2zm139 145-12 3-12 6-9 7-102 102-6 10-5 12-2 11v12l4 16 8 15 11 11 10 6 8 4 13 3h17l18-6 11-7 15-14 84-84 10-13 6-14 2-8v-22l-4-13-6-11-9-11-10-7-11-5-14-3zm120 172-14 3-14 7-9 7v2l-4 2-49 49-9 14-4 11-1 5v22l4 13 6 11 11 12 10 7 12 5 10 2h15l14-3 12-6 10-8 52-52 9-14 4-11 2-11v-12l-3-14-7-14-8-10-10-8-13-6-13-3z" fill="#010102"/>
<path transform="translate(524,130)" d="m0 0h18l10 4 11 8 272 272 8 11 4 10v17l-4 11-7 9-9 7-10 4-14 1-12-3-9-6-10-9-269-269-7-10-3-9v-16l4-11 6-9 10-8z" fill="#000001"/>
<path transform="translate(1506,130)" d="m0 0h18l11 4 9 7 7 10 4 12v14l-4 11-6 8-9 10-266 266-10 7-10 4-14 1-9-2-8-4-10-9-6-10-2-6v-18l4-10 6-9 276-276 10-7z" fill="#010102"/>
<path transform="translate(1016,177)" d="m0 0h15l10 3 10 7 7 8 5 11 1 6v236l-2 10-6 10-6 7-10 6-6 2-11 1-13-2-9-5-8-7-6-10-3-10-1-29v-140l1-72 4-11 6-8 9-8 9-4z" fill="#020203"/>
<path transform="translate(1017,16)" d="m0 0h12l9 2 9 5 8 7 6 10 3 10v12l-3 10-7 11-7 6-10 5-11 2-13-1-9-4-8-6-7-9-4-9-1-4v-13l4-13 7-9 7-6 8-4z" fill="#020203"/>
</svg>
