<?xml version="1.0" encoding="UTF-8"?>
<svg version="1.1" viewBox="0 0 2048 2048" width="30" height="30" xmlns="http://www.w3.org/2000/svg">
<path transform="translate(822,270)" d="m0 0h31l23 3 23 6 24 10 18 10 14 10 13 11 19 19 13 18 12 21 8 19 7 23 4 24v39l-2 14-5 21-6 18-7 16-10 17-10 14-12 14-12 12-17 13-9 6 17 17 8 7 12 12 2 1v2l4 2 19 19 8 7 15 15 8 7 11 11 8 7 13 13 2 1v2l4 2 15 15 2 1 20 1-8-30-14-48-1-5v-11l4-12 6-9 8-7 11-5 4-1h14l11 4 9 6 7 8 5 11 15 51 13 45 1 2 30 1 20 3 14 5 14 7 11 8 10 9 8 8 10 15 7 15 5 18 1 6v28l-3 15-6 16-8 15-8 10-8 9-14 11-13 8-9 3 19 65 35 120 16 55 12 41 16 55 12 41 19 65 10 35v2h172l5-2 12-15 11-14 20-26 13-16 9-8 8-4 9-2h9l12 3 10 7 7 8 4 8 2 6v16l-4 11-10 14-11 14-14 18-11 14-14 18-11 14-10 10-8 4-7 2-335 1-5 2-19 19-8 7-11 11-8 7-12 12-8 7-16 16-8 7-9 9-8 7-9 9h-2v2l-8 7-12 12-8 7-12 12-8 7-13 13-8 7-13 13-8 7-13 13-8 7-13 13-8 7-9 9-10 8-8 4-7 2-599 1-6 3-19 12-17 11-22 14-19 12-23 15-18 11-17 11-22 14-17 11-24 15-20 13-22 14-19 12-20 13-30 19-12 4h-14l-10-3-9-6-8-9-6-13v-18l7-14 7-8 12-8 19-12 17-11 16-10 22-14 17-11 19-12 17-11 38-24 17-11 19-12 23-15 18-11 17-11 22-14 23-15 11-7 11-4h55l-5-12-6-23-2-18v-13l3-22 5-18 11-24 14-29 16-33 22-46 8-16 20-41 10-21 2-9 12-182 1-4-8 1h-13l-26-4-32-6-31-6-15-6-14-8-11-9-9-9-9-13-8-15-5-16-3-14v-23l6-37 15-86 24-137 12-69 4-13 6-9 7-6 4-3-1-9-4-19-1-9v-18l3-20 5-19 8-18 11-18 13-15 7-7 16-12 16-9 17-7 17-4 19-2h12l18 2 19 5 17 7 14 8 12 9 15 14 12 15 8 14 4 4 18-11 9-5h2l-1-3-5-5-10-12-10-15-12-22-8-21-6-25-2-14-1-18 1-21 3-19 6-22 8-21 9-17 8-12 9-12 9-10 3-4h2l1-3 8-7 14-11 17-11 16-8 14-6 23-7 18-3zm12 79-22 3-16 5-17 8-16 12-14 14-9 13-8 16-5 14-3 17v27l4 19 6 15 6 12 10 13 10 11 13 10 14 8 14 6 15 4 17 2h10l21-3 15-5 16-8 11-7 13-11 11-13 8-13 6-12 5-17 2-12v-27l-3-16-7-19-9-16-8-10-14-14-13-9-16-8-14-5-15-3zm-298 269-13 4-10 5-11 9-7 10-6 13-3 15v8l3 15 4 10 6 9 6 7 13 9 12 5 15 2 13-2 13-5 11-8 7-7 6-10 5-12 2-15-1-12-4-13-5-10-7-9-9-8-16-8-10-2zm249 39-20 3-16 4-19 8-15 9-11 9-11 11-7 10-8 14-6 17-5 25-10 60-14 81-12 70-11 65v7l47-6 30-6 30-8 29-10 27-12 19-10 20-13 11-8 16-13 12-11-2-4-11-9-12-11-11-9-10-9-11-9-8-7-7-11-4-11v-11l4-13 7-10 10-7 7-3 5-1h10l12 3 10 6 15 13 42 36 10 9 11 9 4 3h281l13-2 10-6 6-9 2-5v-14l-5-10-7-7-9-4-155-1-9-2-8-4-14-12-23-23-8-7-10-10-8-7-12-12-8-7-19-19-8-7-15-15-8-7-13-13-8-7-10-10-8-7-10-8-15-8-15-5-14-2zm-321 149-1 1-11 64-17 97-14 81-7 41v10l3 9 7 8 11 4 54 10 12 2h7l10-5 7-8 3-9 16-92 19-112 13-76v-5l-31-6-73-13zm489 180-3 1-4 20-9 54-5 28v8l40 19 45 22 22 10 19 10 10 9 8 9 13 17 13 16 11 14 13 16 9 12 13 16 8 10 11 14 14 18 13 16 11 14 13 16 12 16 12 15 9 14 8 16 6 18 3 15 1 9 2 1h36l4-2-13-45-16-55-17-58-14-48-13-44-19-66-15-51-16-55-12-41-2-7-1-1zm-98 72-24 14-24 12-24 10-26 9-27 8-25 6-28 5-29 4-42 4-2 5-3 21v17l3 13 8 16 11 12 13 8 13 5 20 4 108 18 25 5 21 9 22 11 23 11 33 16 23 11 10 6 8 7 11 14 13 16 11 14 14 18 13 16 33 42 12 15 22 28 13 16 7 8 11 8 11 5 8 2h21l15-5 11-7 6-5 10-14 5-15 1-5v-12l-3-14-5-11-10-14-12-15-11-14-9-11-10-13-13-16-12-16-11-13-10-13-13-16-7-9-10-13-13-16-13-17-14-17-6-5-50-24-60-29-23-11-11-6-8-7-5-9-3-9v-14l8-48v-6zm-262 232-2 17-3 50-4 58-3 14-19 40-11 22-11 23-18 37-11 23-20 41-13 28-3 9-1 8v10l3 13 7 14 8 10 10 7 12 6 15 3h9l16-4 12-6 10-9 6-7 6-10 11-23 24-50 23-47 11-23 32-66 12-25 2-7 5-66 4-60-1-2-60-10-23-5-21-7-12-6zm197 46-5 77-3 42-2 14-7 17-26 53-11 23-14 29-19 39-12 25-17 35-14 30v3h287l5-2 11-11 8-7 14-14 8-7 13-13 8-7 14-14 2-1v-2l4-2 9-9 8-7 15-15 8-7 6-6v-2l-17-8-18-12-12-11-10-11-8-10-11-14-12-15-33-42-9-11-10-13-13-16-13-17-13-16-11-14-4-5-44-22-23-11-27-13z"/>
<path transform="translate(1543,196)" d="m0 0h23l18 2 21 5 20 7 16 8 15 9 17 13 15 14 10 12 6-1 16-5 15-3 10-1h26l21 3 17 5 19 8 18 11 16 13 12 12 12 16 10 17 8 20 5 19 2 12v35l-5 25-7 19-12 23-13 16-7 8-8 8-14 10-13 8-19 9-20 6-17 3-12 1h-218l-21-2-20-4-18-6-20-9-15-9-16-12-13-12-11-12-12-16-10-17-9-20-7-24-4-22v-35l4-25 6-20 11-25 11-18 10-13 14-15 11-10 18-13 16-9 18-8 20-6 22-4zm0 80-20 4-15 6-14 8-13 11-8 8-11 17-7 16-5 21v24l3 16 6 16 7 13 11 14 9 9 13 9 16 8 16 5 14 2h221l14-3 14-6 11-8 8-7 8-11 6-12 4-15v-23l-4-15-7-14-7-9-8-8-14-9-13-5-10-2h-20l-16 4-14 7-13 9-10 4-3 1h-15l-11-4-8-6-6-7-11-20-9-12-4-5-8-7-14-10-14-7-17-5-14-2z"/>
<path transform="translate(231,170)" d="m0 0h18l19 2 17 4 16 6 17 9 13 9 13 11 11 12 10 14 9 16 8 21 4 17 2 20-1 24-4 20-5 15-9 19-11 16-12 14-11 10-14 10-14 8-19 8-21 5-12 2h-26l-19-3-20-6-16-7-16-10-14-11-11-11-11-14-7-11-8-16-6-16-3-12-2-14v-30l4-22 6-18 8-17 8-12 10-13 15-15 18-13 17-9 16-6 23-5zm1 80-14 4-12 6-10 8-9 10-8 16-3 12v20l4 15 8 14 9 10 9 7 14 7 12 3h19l15-4 11-6 9-7 5-5 8-10 5-11 4-18v-10l-2-12-5-13-7-11-7-8-11-8-13-6-11-3z"/>
<path transform="translate(1903,1051)" d="m0 0h109l12 3 9 6 8 8 6 12 1 3v18l-7 13-10 10-10 5-9 2-86 1-13 17-10 13-14 18-11 14-7 7-12 6-8 2h-11l-13-4-10-8-6-9-4-9-1-5v-10l4-13 7-10 14-18 11-14 14-18 10-13 8-10 7-8 10-6z"/>
<path transform="translate(236,44)" d="m0 0h10l10 2 10 6 6 5 6 9 3 9 1 5v29l-3 13-6 10-7 7-12 6-4 1h-17l-11-4-9-7-6-8-5-13-1-11v-15l2-16 6-12 9-9 12-6z"/>
<path transform="translate(237,489)" d="m0 0h9l9 2 8 4 10 9 6 10 3 13v29l-3 11-6 10-8 8-11 5-12 2-14-2-11-6-7-7-7-13-2-16v-16l2-14 4-9 4-6 9-8 8-4z"/>
<path transform="translate(30,161)" d="m0 0h19l11 4 17 10 9 7 7 8 4 9 2 8v9l-3 11-6 10-9 8-11 5-4 1h-15l-11-4-16-9-11-8-7-8-4-8-2-5v-19l8-14 6-7 10-6z"/>
<path transform="translate(51,383)" d="m0 0h15l10 3 9 6 7 8 5 10 2 8v9l-4 13-6 9-9 8-23 13-10 3h-15l-10-3-8-6-7-7-7-14v-19l8-15 9-9 22-13z"/>
<path transform="translate(434,161)" d="m0 0h19l10 4 9 7 7 9 4 10 1 12-2 10-5 10-7 8-16 10-16 8-6 2h-14l-10-3-9-6-7-7-5-10-2-7v-14l4-12 8-10 11-8 18-10z"/>
<path transform="translate(417,383)" d="m0 0h16l11 4 21 12 10 9 6 10 2 6 1 12-2 10-5 10-8 9-14 7-5 1h-15l-10-4-17-9-9-7-5-5-6-9-3-10v-13l3-10 7-11 3-1v-2l12-7z"/>
<path transform="translate(1740,1247)" d="m0 0h15l10 3 9 6 8 9 5 11 1 6v10l-3 10-6 10-7 7-12 6-4 1h-17l-11-4-10-8-6-10-4-11v-12l4-13 6-8 9-8 9-4z"/>
</svg>
