<?xml version="1.0" encoding="UTF-8"?>
<svg version="1.1" viewBox="0 0 2048 2048" width="30" height="30" xmlns="http://www.w3.org/2000/svg">
<path transform="translate(191,264)" d="m0 0h252l10 2 10 5 7 6 6 9 4 13v9l-2 9-6 11-9 9-11 5-4 1-13 1-247 1-14 2-16 5-21 10-12 9-12 10-14 19-9 17-6 17-3 22v1137l3 21 7 19 8 15 9 12 12 13 16 12 16 8 13 5 18 4 14 1h1656l19-2 17-5 21-10 12-9 10-9 8-8 10-14 10-21 4-14 2-11 1-11v-1130l-2-19-5-17-6-14-9-15-11-13-7-7-15-11-17-9-21-7-16-2-1099-1-12-2-10-5-7-6-7-11-3-9v-13l3-10 6-10 8-7 12-6 5-1h1101l24 2 20 4 24 8 21 10 16 10 16 12 15 14 7 7 11 14 10 15 9 16 8 19 7 24 5 26v1158l-6 30-10 30-10 20-9 14-12 16-15 16-11 10-17 12-17 10-19 9-26 8-21 4-8 1-20 1h-1645l-22-1-21-3-22-6-18-7-23-12-12-8-13-10-15-14-11-12-13-18-11-19-9-21-7-23-5-26v-1162l6-28 6-20 8-18 8-15 11-16 8-10 9-10 13-13 17-13 18-11 23-11 18-6 17-4 14-2z"/>
<path transform="translate(579,472)" d="m0 0h41l24 2 36 6 25 6 33 11 21 9 19 9 23 13 12 8 14 10 13 10 13 11 13 12 19 19 7 8 13 16 13 18 12 19 13 24 10 21 10 26 9 29 7 34 4 30 1 20v23l-1 23-4 30-5 26-9 31-10 27-9 20-13 25-12 19-12 17-10 13-12 14-15 16-12 12-11 9-10 9-19 14-23 15-16 9-16 8-28 12-37 12-28 6-32 5-32 2h-15l-36-2-35-6-26-6-33-11-26-11-20-10-19-11-18-12-16-12-11-9-10-9-15-14-9-9v-2h-2l-7-8-11-13-15-20-13-20-12-22-11-22-10-26-8-24-7-30-5-30-2-22v-46l3-29 7-38 9-31 9-24 10-23 10-19 10-17 8-12 14-19 13-16 12-13 9-10 10-9 12-11 14-11 16-12 19-12 21-12 25-12 26-10 25-8 27-6 29-5zm0 80-22 2-30 6-24 7-25 10-25 12-17 10-14 10-16 12-16 15-9 8-7 8-9 10-10 13-11 16-10 17-11 21-8 20-9 27-7 32-3 30v37l3 26 6 31 11 33 10 24 10 19 8 12 7 11 14 17 3-3 6-11 9-13 10-13 8-10 12-12v-2l4-2 14-13 13-9 23-15 16-9v-3l-8-9-9-15-7-15-7-21-3-16-1-10v-31l2-20 5-21 6-15 12-23 11-14 14-15 13-10 17-11 18-8 16-5 22-4h31l22 4 17 5 21 10 15 10 10 8 9 8 7 8 10 13 10 18 7 16 5 17 3 19v47l-2 15-6 21-9 20-11 18-2 4-4 2v3l17 10 19 12 16 12 10 9 8 7 9 9 7 8 12 15 7 10 9 15 2 4 4-1 11-14 15-23 14-27 10-26 7-22 6-29 3-22 1-15v-23l-2-25-5-30-6-23-9-26-14-29-12-21-12-17-11-14-11-12-7-8-8-7-13-12-20-15-17-11-22-12-19-9-28-10-30-7-16-3-23-2zm11 197-16 4-14 7-13 11-8 10-8 16-4 18v30l4 16 5 12 10 13 7 7 11 7 10 5 15 4h22l14-4 16-8 9-7v-2l4-2 10-14 5-11 4-18v-25l-3-17-4-11-8-13-9-10-13-9-8-4-13-4-6-1zm2 240-22 2-26 6-21 8-19 10-12 8-13 10-12 11-10 10-10 13-12 19-8 17 1 4 18 11 18 10 24 11 30 10 21 5 26 4 26 2h18l26-2 30-5 26-7 25-9 24-11 26-15 7-5-1-5-8-17-14-21-12-14-11-11-11-9-15-11-27-14-22-8-22-5-26-2z"/>
<path transform="translate(1210,664)" d="m0 0h585l10 2 10 5 7 6 6 9 3 8 1 9v317l-1 13-4 10-6 9-8 6-9 4-4 1-13 1h-572l-12-2-10-5-7-6-7-11-3-12v-330l3-10 6-10 8-7 12-6zm46 80v240h496v-240z"/>
<path transform="translate(1211,1144)" d="m0 0h584l10 2 10 5 7 6 6 9 4 13v9l-2 9-6 11-9 9-11 5-4 1-13 1h-572l-12-2-10-5-7-6-7-11-3-10v-12l3-10 6-10 8-7 12-6z"/>
<path transform="translate(352,1320)" d="m0 0h494l14 2 11 6 7 7 6 10 3 11-1 13-4 10-6 8-9 8-10 4-7 1h-503l-10-3-11-7-8-10-4-10-1-4v-11l3-10 4-8 10-10 10-5z"/>
<path transform="translate(417,1480)" d="m0 0h363l16 2 11 6 7 7 6 10 3 11-1 13-4 10-6 8-9 8-10 4-7 1h-375l-10-3-11-7-8-10-4-10-1-5v-10l3-10 4-8 10-10 10-5z"/>
<path transform="translate(1531,1304)" d="m0 0h264l10 2 10 5 7 6 6 9 3 8 1 6v9l-3 10-6 10-8 8-11 5-4 1-13 1h-251l-13-2-10-5-7-6-7-11-3-10v-12l3-10 6-10 8-7 12-6z"/>
<path transform="translate(594,264)" d="m0 0h10l10 2 10 6 7 6 5 8 4 13v9l-2 9-6 11-9 9-11 5-3 1h-19l-12-5-8-7-7-11-3-10v-12l3-10 6-10 9-8 11-5z"/>
<path transform="translate(1371,1304)" d="m0 0h9l10 2 10 6 7 6 5 8 4 13v9l-2 9-6 11-9 9-11 5-3 1h-19l-12-5-8-7-7-11-3-10v-12l3-10 6-10 9-8 11-5z"/>
<path transform="translate(1211,1304)" d="m0 0h9l10 2 10 6 7 6 5 8 4 13v9l-2 9-6 11-9 9-11 5-3 1h-19l-12-5-8-7-7-11-3-10v-12l3-10 6-10 9-8 11-5z"/>
</svg>
