<?xml version="1.0" encoding="UTF-8"?>
<svg version="1.1" viewBox="0 0 2048 2048" width="30" height="30" xmlns="http://www.w3.org/2000/svg">
<path transform="translate(586,989)" d="m0 0h43l15 4 17 7 23 13 19 12 14 9 11 7 12 8 34 22 15 9 18 10 26 12 26 10 16 6 17 6 36 10 26 5 18 2 14 2 19 1h39l24-2 16-2 31-6 16-4 24-7 24-9 34-13 25-12 21-11 23-15 11-7 12-8 18-11 15-10 11-7 18-11 14-8 15-7 19-5h42l35 4 31 6 23 6 23 8 19 8 22 10 15 9 14 8 10 7 15 10v2l4 2 11 9 11 10 2 1v2l4 2 12 13 7 8 11 13 8 10 12 17 7 10 16 26 11 21 20 40 11 27 13 35 8 27 10 36 11 51 6 33 7 45 6 56 3 37 1 26 1 62-1 48-3 24-3 20-9 37-7 20-12 29-13 23-8 14-4 5-10 14h-2l-2 5-9 10-28 28-12 9-8 7-11 7-10 7-15 9-17 9-31 13-24 8-15 4-29 6-26 4h-5v2h-1085l-1-2-37-6-31-7-32-11-23-10-19-10-16-9-14-10-20-15v-2l-4-2-14-12-10-10-7-8-8-9-14-19-10-15-13-23-13-29-12-36-7-33-4-31-1-12-1-27v-20l1-52 2-36 3-39 4-39 7-46 7-40 11-51 15-53 5-16 11-29 7-18 8-18 18-36 12-22 10-16 9-13 8-12 11-14 11-12 7-10 26-26 13-10 9-8 10-7 18-12 18-10 14-8 33-14 31-10 35-8 27-4zm22 121-24 1-26 4-28 7-17 6-29 14-14 8-12 9-13 10-5 4-5 6-5 5-13 15-1 3h-2l-9 11-7 11-20 30-10 19-11 23-8 18-13 35-15 52-9 41-8 43-7 47-5 51-3 88-1 13v23l3 32 4 24 7 25 7 17 8 16 8 14 11 14 8 10h2v2h2v2l8 7 11 9 14 10 14 8 16 8 14 6 19 6 16 4 18 3 28 3h1034l27-3 29-6 16-5 20-7 21-10 10-7 14-10 9-7 22-22 8-11 6-9 10-16 11-27 6-22 4-21 2-16 1-17v-27l-1-32-1-16-2-59-5-49-7-46-5-27-9-44-7-26-10-34-11-30-9-22-23-46-7-11-8-12-13-19-2-3h-2l-2-4-12-14-7-8-14-14-16-12-17-11-16-9-13-5-8-4-15-5-28-7-19-3h-9l-1-1h-10-2l-10-1-8 4-20 12-10 7-17 11-16 10-15 10-11 7-16 10-24 14-22 11-26 11-28 11-36 12-32 9-38 8-34 5-50 4h-24l-35-3-15-1-36-6-24-5-20-5-16-5-14-4-28-10-18-7-22-9-38-19-20-11-14-9-19-12-15-10-17-11-19-12-22-14-6-3z"/>
<path transform="translate(953)" d="m0 0h108v2l26 3 29 5 36 9 36 12 19 8 16 8 21 10 15 9 21 13 48 36v2l4 2 16 15 4 3v2l4 2 10 10 7 8 1 3h2l7 8 11 13 27 36 12 19 15 26 14 28 10 25 12 36 8 32 4 22 4 29 3 38v42l-3 37-5 36-9 38-11 35-12 30-12 25-8 15-17 28-11 16-10 13-13 17-22 24-7 8-11 11h-2l-1 3-11 9-7 7-8 7-13 10-20 15-13 9-35 21-28 14-26 11-35 12-36 9-22 4-30 4-42 3h-35l-34-3-37-5-15-3-40-10-28-10-16-6-26-12-19-10-15-9-21-13-19-14-17-13-15-13-10-9-15-14-8-8-7-8-14-15-9-11-8-10-9-12-12-17-21-35-20-41-6-15-10-29-11-42-5-29-4-28-2-50 2-49 7-47 5-22 9-34 14-38 9-20 9-19 12-20 9-14 5-9 10-13 8-11 11-14 6-8 8-8 7-8 9-9 5-7 9-7 13-13 8-7 9-8 6-4 13-10 15-11 10-7 20-12 17-10 24-12 24-10 23-8 21-7 15-3 12-3 14-3 16-3 23-3zm2 1m39 119-9 1-26 2-36 6-16 4-16 5-27 10-13 6-21 10-11 7-21 14-16 12-13 11-3 2v2l-4 2-13 13-5 4-7 8-5 5v2h-2l-6 7v2l-3 1-13 17-11 15-11 18-10 16-14 32-12 36-7 30-4 26-3 41v14l2 24 3 29 3 20 9 34 9 25 7 15 11 23 8 13 11 18 13 17 10 13 8 9h2l2 4 20 20h2l1 3 8 7 9 8 9 7 13 10 18 12 15 9 23 12 16 7 23 8 24 7 17 4 37 5 12 1h55l23-2 27-4 29-7 33-11 17-8 18-8 11-7 21-13 11-8 16-12 14-13 9-7 19-19 8-10 11-12 8-11 9-12 10-15 12-21 6-12 9-21 12-36 6-25 5-35 1-12 1-32-2-43-4-27-7-31-8-26-10-25-13-26-15-25-12-16-13-17-15-16-14-15-13-12-10-9-17-13-17-12-21-13-23-12-20-9-34-11-28-7-18-3-18-2-21-1-9-1z"/>
</svg>
