<?xml version="1.0" encoding="UTF-8"?>
<svg version="1.1" viewBox="0 0 2048 2048" width="30" height="30" xmlns="http://www.w3.org/2000/svg">
<path transform="translate(561)" d="m0 0h1055l12 6 7 6 5 8 2 6 1 7v1971l-1 16-3 10-7 9-9 6-10 3h-1355l-11-4-9-7-6-9-3-10v-1685l6-11 11-12 302-302 10-6zm43 66-1 15v239l-1 27-3 9-5 8-9 6-13 3-276 1-1 1v1607h1281v-1916zm-68 48-188 188-5 4v2h194l1-30v-164z" fill="#030303"/>
<path transform="translate(1735)" d="m0 0h57l14 7 8 9 4 10 1 7v1971l-1 17-4 10-6 8-9 6-10 3h-53l-14-7-8-8-4-8-1-4v-11l3-11 9-10 12-6 4-1h15v-1916h-14l-10-3-9-6-7-9-3-10v-12l4-10 8-9z" fill="#030303"/>
<path transform="translate(479,1321)" d="m0 0h365l15 2 10 6 7 8 4 10v15l-6 12-7 7-8 4-9 2h-334v286l298 1v-189l4-13 6-9 10-7 7-2h13l9 3 9 7 6 9 2 6 1 10v211l-1 14-3 8-7 9-10 6-8 2-40 1h-65l-270-1-9-3-9-6-7-10-3-13v-353l3-12 6-10 7-6 9-4z" fill="#020202"/>
<path transform="translate(478,1145)" d="m0 0h914l9 2 11 7 7 10 3 9v9l-3 10-7 10-9 6-7 2-9 1h-907l-12-3-8-6-6-7-4-11v-12l4-11 8-9 12-6z" fill="#050505"/>
<path transform="translate(489,616)" d="m0 0h865l40 1 10 3 8 6 6 7 4 11v10l-3 10-6 8-6 5-6 3-9 2-902 1-13-1-11-4-8-6-6-10-2-6v-12l3-10 7-9 10-6 8-2z"/>
<path transform="translate(704,308)" d="m0 0h683l13 2 8 4 4 3v2h2l6 10 2 7v10l-3 10-7 9-5 4-11 4-5 1h-692l-13-4-10-9-5-10-1-4v-11l4-12 7-8 8-5 6-2z" fill="#030303"/>
<path transform="translate(495,792)" d="m0 0 358 1 11 4 10 9 5 9 1 4v14l-3 8-7 9-9 6-9 2-9 1h-361l-11-2-11-7-6-8-4-10v-12l4-12 9-9 10-5 5-1z" fill="#030303"/>
<path transform="translate(1018,793)" d="m0 0h376l12 4 9 8 6 12 1 4v9l-3 10-6 8-7 6-11 4-9 1h-363l-12-3-8-5-7-8-4-9-1-5v-8l4-11 7-9 9-6z" fill="#030303"/>
<path transform="translate(1019,969)" d="m0 0h373l12 3 8 6 7 10 3 9v9l-3 10-7 10-9 6-8 2-9 1h-363l-12-3-8-5-7-8-4-8-1-4v-10l4-11 7-9 10-6z" fill="#050505"/>
<path transform="translate(478,969)" d="m0 0h374l10 3 8 6 6 7 4 10v15l-5 10-7 8-7 4-8 2-9 1h-363l-10-2-9-5-7-8-5-12v-12l4-11 9-10 10-5z" fill="#050505"/>
<path transform="translate(1024,1497)" d="m0 0h360l16 2 9 5 7 7 5 10 1 4v9l-3 11-7 9-6 5-9 3-5 1h-372l-13-4-9-8-6-12-1-4 1-13 4-9 7-8 8-5 6-2z" fill="#020202"/>
<path transform="translate(1025,1321)" d="m0 0h366l9 2 9 5 7 7 5 10 1 4v9l-3 11-7 9-6 5-10 3-6 1h-370l-13-4-9-8-6-12-1-11 3-12 6-9 5-4 8-4z" fill="#020202"/>
<path transform="translate(1017,1674)" d="m0 0h157l11 4 9 7 6 10 2 7v8l-3 11-7 9-8 6-10 3-44 1h-95l-17-1-11-4-10-9-5-11-1-4 1-13 4-9 7-8 8-5z" fill="#020202"/>
</svg>
