<?xml version="1.0" encoding="UTF-8"?>
<svg version="1.1" viewBox="0 0 2048 2048" width="60" height="60" xmlns="http://www.w3.org/2000/svg">
<path transform="translate(126)" d="m0 0h1254l25 6 15 5 20 11 14 11 12 11 11 14 8 13 8 17 6 19 2 16 1 14v683l-3 27-6 20-4 10-11 19-11 14-5 6-11 9-14 10-19 10-23 7-21 3-32 1h-839l-10 1-7 9-12 14-13 17-12 14-9 11-14 17-11 14-11 13-8 10-9 11-13 16-11 13-7 9-14 17-8 10-10 12-9 11-12 15-11 14-7 7-13 9-18 7-9 1h-15l-14-3-14-7-9-7-9-10-6-10-5-12-2-11-1-29v-180l1-3h-27l-28-2-14-3-21-7-17-9-13-10-10-9-9-9-11-15-9-16-6-17-5-20-1-9v-706l4-21 6-18 8-16 7-12 18-21 14-11 13-8 17-8 23-7zm4 68-15 3-16 8-11 9-9 11-7 14-3 11-1 9v689l2 14 4 11 6 11 9 11 8 6 12 7 12 4 6 1 76 1 13 2 9 5 7 7 4 8 2 10v238l4-2 8-9 9-11 11-13 7-9 13-16 11-13 11-14 9-11 12-14 8-10 11-14 11-13 13-16 8-10 18-22 14-17 11-14 11-13 9-11 8-9 10-6 12-3 897-1 16-4 15-8 12-11 7-10 5-10 3-9 1-6 1-62-1-640-3-13-8-16-11-13-10-7-15-7-16-3z" fill="#000001"/>
<path transform="translate(1798,820)" d="m0 0h21l13 3 14 7 10 8 8 9 8 14 4 13 1 8v210h33l24 2 17 4 16 6 17 9 16 12 9 8 7 8 11 15 10 19 7 21 3 15 1 8v703l-3 17-6 20-5 12-8 15-7 9-9 11-8 8-16 12-21 11-25 8-21 3h-1248l-23-5-17-5-21-11-11-8-14-12-11-13-7-10-11-21-6-18-2-9-2-18v-696l3-23 6-19 4-9 11-20 11-13 7-8 12-10 10-7 18-10 26-8 28-3 872-1 11-13 1-2h2l2-4 11-13 10-13 11-13 14-17 11-14 11-13 13-16 8-10 18-22 14-17 11-14 11-13 18-22 13-16 11-14 5-6 15-11 14-6zm10 69-11 12-10 13-14 17-8 10-11 13-11 14-18 22-12 14-13 17-12 14-9 11-13 16-11 14-12 14-8 10-18 22-13 16-6 8-10 8-10 4-6 1-888 1-18 2-12 4-14 9-7 6-10 14-5 11-3 10-1 11v688l2 13 5 13 5 9 7 9 10 8 10 6 13 5 18 2h1223l21-2 13-5 10-6 10-9 7-8 8-15 3-13 1-13v-676l-2-20-4-12-6-11-9-11-12-9-13-6-12-3-9-1-74-1-9-2-9-6-6-7-4-10-1-4-1-241z" fill="#000001"/>
<path transform="translate(1281,1229)" d="m0 0h26l17 1 26 5 19 5 31 12 18 10 17 11 17 14 13 11 7 8 10 11 10 13 16 26 12 27 5 14 8 32 3 29v16l-2 26-5 25-6 22-8 19-8 16-10 17-8 11-9 11-11 13-12 11-8 7-10 12-3 8-1 4-1 32-3 17-7 16-8 11-10 9-5 3-1 5-1 50-4 20-5 13-9 16-13 15-15 12-16 8-14 5-16 3h-20l-17-3-14-5-15-8-13-11-11-11-11-17-5-12-4-13-3-22v-42l-5-5-12-11-9-13-5-12-3-19v-24l-3-15-5-8-9-10-9-9-8-7-9-9-7-9-10-13-8-13-13-24-7-18-8-27-5-30-1-17v-18l3-26 4-21 11-33 14-28 9-14 9-12 10-13 24-24 18-13 15-10 12-7 27-12 31-9 26-4zm6 68-19 2-24 6-24 10-17 10-13 10-14 12-9 10-8 10-11 17-9 19-7 21-4 19-1 8v35l5 25 8 24 13 25 10 13 9 11 7 7 8 7 19 19 10 16 7 16 3 11 2 30 1 17h134l2-1 1-26 2-19 5-17 8-16 10-14 21-21 8-7 10-11 10-14 8-13 9-20 7-24 3-18 1-26-3-24-7-25-11-25-10-16-7-9-9-10-7-8-16-13-16-10-19-10-24-8-20-4-14-1zm42 477-66 1v37l4 13 9 11 7 4 10 3h9l9-3 9-6 7-9 3-8 1-7 1-34z" fill="#000001"/>
<path transform="translate(714,136)" d="m0 0 24 1 22 3 25 6 20 7 18 8 17 9 12 8 16 12 13 12 8 7 7 8 11 13 12 17 12 22 7 15 7 20 6 23 4 25v47l-4 26-6 22-8 22-8 17-11 19-10 14-8 10-12 13-15 15-17 13-17 11-27 14-26 9-19 5-16 3v36l-2 12-6 10-8 7-9 4-4 1h-11l-10-3-9-7-6-9-3-9-1-5v-37l3-19 5-12 6-10 9-10 12-9 14-6 44-11 25-12 10-6 21-16 5-4 9-11 11-13 14-25 5-11 8-27 3-25v-19l-3-26-7-25-9-20-12-20-12-14-8-9-11-9-9-7-15-9-16-8-19-7-17-4-15-2-21-1-26 3-21 5-22 9-17 9-19 14-4 4h-2v2l-7 6-7 8-10 13-8 13-8 16-7 19-5 22-2 17-2 18-4 10-9 10-7 4-9 2h-9l-10-3-9-6-6-9-4-11v-24l4-28 7-26 7-19 11-23 11-18 12-16 12-14 16-16 14-11 12-9 15-9 15-8 25-10 24-7 24-4z" fill="#000001"/>
<path transform="translate(1298,1365)" d="m0 0 20 2 21 7 13 7 13 10 9 8 11 15 9 19 4 14 2 16-1 12-4 10-5 7-11 7-11 3-9-1-9-3-8-6-5-6-4-9-5-22-4-8-8-7-5-3-27-6-10-7-7-9-3-9v-13l3-9 6-9 9-6 8-3z" fill="#000001"/>
<path transform="translate(974,1550)" d="m0 0 13 2 10 5 5 4 7 11 2 7v10l-4 13-9 10-14 7-37 13-18 7-11 3h-11l-11-4-8-6-6-9-3-7-1-11 4-12 6-9 8-6 14-6 47-17z" fill="#000001"/>
<path transform="translate(1680,1293)" d="m0 0 12 1 10 5 8 8 5 10 1 3v14l-3 9-7 9-9 6-26 10-38 14-9 2h-13l-9-3-9-7-5-7-4-12v-8l4-13 7-9 12-7 40-15 19-7z" fill="#000001"/>
<path transform="translate(1637,1433)" d="m0 0h63l14 1 10 4 9 8 5 8 2 6v15l-4 10-9 10-7 4-16 3h-68l-12-3-8-6-6-7-4-8-1-4v-12l3-10 7-9 5-4 9-4z" fill="#000001"/>
<path transform="translate(891,1433)" d="m0 0h55l15 1 10 3 8 6 6 7 4 11v14l-4 10-9 10-7 4-8 2-9 1h-64l-14-3-8-5-7-8-4-8-2-8 1-10 5-12 8-8 10-5z" fill="#000001"/>
<path transform="translate(907,1294)" d="m0 0h9l19 5 24 9 30 11 11 7 7 9 4 11v10l-3 10-7 9-7 6-10 4h-13l-16-5-39-14-18-7-8-6-6-7-4-7-1-4v-12l3-10 6-9 10-7z" fill="#000001"/>
<path transform="translate(1614,1550)" d="m0 0 13 1 30 10 37 14 10 6 7 8 5 12v12l-4 11-6 8-8 6-16 4-17-4-30-11-27-10-12-7-8-10-3-10v-13l4-10 7-9 9-5z" fill="#000001"/>
<path transform="translate(708,752)" d="m0 0h16l9 3 8 6 6 8 4 13v7l-3 10-5 8-7 6-8 4-8 2h-8l-10-3-8-6-7-8-4-10v-12l3-10 4-6 5-5 7-5z" fill="#000001"/>
</svg>
