<?xml version="1.0" standalone="no"?>
<!DOCTYPE svg PUBLIC "-//W3C//DTD SVG 20010904//EN"
 "http://www.w3.org/TR/2001/REC-SVG-20010904/DTD/svg10.dtd">
<svg version="1.0" xmlns="http://www.w3.org/2000/svg"
 width="22.000000pt" height="22.000000pt" viewBox="0 0 512.000000 512.000000"
 preserveAspectRatio="xMidYMid meet">

<g transform="translate(0.000000,512.000000) scale(0.100000,-0.100000)"
fill="#db842d" stroke="none">
<path d="M1915 5097 c-90 -44 -140 -113 -230 -318 -74 -166 -114 -213 -200
-234 -33 -8 -109 -19 -170 -25 -188 -19 -275 -44 -339 -100 -91 -81 -105 -180
-57 -418 37 -182 40 -261 12 -306 -11 -17 -85 -93 -165 -169 -171 -162 -206
-217 -206 -321 1 -111 53 -191 224 -343 139 -124 166 -165 166 -250 0 -34 -12
-118 -27 -185 -36 -163 -38 -304 -6 -364 52 -96 143 -145 318 -167 58 -8 107
-16 109 -18 2 -2 -120 -339 -271 -749 -216 -586 -273 -750 -266 -769 4 -13 20
-33 34 -44 l27 -19 247 52 c136 28 253 49 260 46 7 -2 85 -90 174 -195 89
-104 171 -193 182 -196 30 -10 67 2 83 28 11 16 343 917 498 1350 8 21 31 38
104 74 128 63 161 63 288 -1 l93 -47 243 -667 c134 -367 249 -680 257 -695 17
-34 53 -52 87 -43 16 4 82 73 191 201 92 107 172 195 180 195 7 0 119 -23 250
-51 260 -56 281 -56 305 0 14 34 35 -29 -289 851 -136 371 -247 677 -245 678
1 2 38 8 81 13 201 24 292 69 344 170 36 71 36 157 0 339 -40 201 -40 261 -3
321 16 25 76 86 135 137 115 102 175 172 208 247 17 39 21 61 17 116 -8 100
-44 153 -216 317 -79 75 -150 148 -158 163 -22 43 -17 142 16 300 33 161 37
232 15 305 -39 132 -147 188 -415 214 -255 25 -262 30 -373 276 -69 152 -108
217 -158 258 -104 88 -204 86 -379 -7 -270 -143 -279 -147 -328 -147 -53 0
-111 25 -262 111 -134 78 -195 101 -270 106 -54 3 -74 0 -115 -20z m253 -194
c305 -162 347 -176 450 -155 56 11 115 39 334 155 193 102 217 88 346 -200
118 -263 178 -305 473 -338 74 -8 151 -18 170 -21 50 -10 107 -41 120 -67 19
-35 13 -131 -17 -262 -18 -82 -27 -151 -28 -220 -2 -144 9 -163 209 -360 231
-227 233 -243 56 -410 -232 -217 -262 -261 -269 -385 -3 -58 3 -110 27 -224
17 -82 31 -180 31 -216 0 -113 -30 -130 -292 -160 -299 -35 -349 -68 -459
-299 -100 -209 -111 -229 -143 -262 -16 -16 -39 -32 -52 -35 -38 -10 -117 21
-258 102 -267 152 -343 151 -618 -4 -79 -45 -164 -86 -189 -93 -92 -24 -133
16 -225 223 -132 297 -186 336 -504 368 -302 30 -320 58 -248 380 14 59 22
131 22 190 1 132 -24 183 -153 305 -171 162 -219 213 -231 250 -22 66 -3 94
176 270 184 180 204 212 211 330 4 52 -3 111 -26 225 -32 160 -39 257 -21 291
24 44 100 65 329 89 185 20 271 59 340 156 20 28 68 120 106 204 115 257 145
272 333 173z m-595 -3082 c34 -30 43 -48 155 -281 96 -200 170 -258 316 -247
l73 5 -193 -530 c-106 -292 -195 -532 -196 -533 -2 -2 -63 69 -137 157 -74 88
-144 164 -156 170 -16 7 -73 -1 -219 -32 -108 -23 -200 -39 -203 -36 -3 3 101
297 232 653 131 357 242 660 247 676 13 35 38 35 81 -2z m2096 -108 c320 -867
446 -1223 436 -1223 -7 0 -97 18 -200 40 -103 22 -198 37 -211 34 -14 -4 -77
-69 -161 -169 -76 -90 -139 -163 -140 -161 -1 1 -89 241 -196 533 l-193 531
77 -5 c71 -5 83 -3 134 22 83 40 114 86 238 346 43 90 76 145 97 162 56 48 62
42 119 -110z"/>
<path d="M2465 4424 c-140 -19 -192 -30 -275 -56 -363 -116 -655 -397 -784
-756 -85 -238 -90 -548 -10 -787 166 -505 636 -845 1164 -845 336 0 645 132
881 377 156 161 247 328 310 563 26 97 37 343 20 460 -75 512 -474 928 -981
1024 -83 16 -272 28 -325 20z m347 -182 c391 -104 683 -393 784 -777 24 -87
27 -120 27 -255 1 -222 -42 -382 -149 -562 -59 -99 -228 -275 -324 -337 -297
-192 -649 -230 -973 -105 -161 62 -275 141 -403 278 -94 100 -164 212 -211
338 -55 147 -67 214 -66 388 0 135 3 168 26 253 109 410 434 714 850 793 104
20 339 12 439 -14z"/>
<path d="M2516 4019 c-10 -6 -65 -107 -123 -224 -92 -187 -108 -215 -131 -219
-15 -4 -119 -19 -232 -36 -113 -16 -214 -32 -223 -36 -23 -8 -37 -36 -37 -72
0 -24 28 -57 175 -203 l174 -174 -41 -238 -41 -238 20 -27 c38 -51 66 -44 296
77 l209 109 207 -109 c135 -71 218 -109 239 -109 35 0 72 38 72 74 0 11 -18
120 -40 241 l-39 220 170 167 c93 92 173 177 178 189 11 33 1 68 -24 85 -13 8
-122 29 -255 49 -128 18 -234 36 -237 38 -2 3 -51 100 -108 215 -62 126 -111
215 -123 221 -26 14 -62 14 -86 0z m126 -404 c46 -91 87 -160 100 -169 13 -8
93 -24 178 -36 85 -12 161 -24 169 -26 9 -3 -32 -51 -117 -138 -78 -78 -132
-141 -132 -152 0 -10 13 -93 29 -184 16 -91 28 -166 26 -168 -1 -2 -72 33
-157 77 -85 45 -165 81 -178 81 -13 0 -93 -36 -178 -81 -84 -44 -155 -79 -157
-77 -2 2 10 77 26 168 15 91 29 174 29 184 0 12 -53 73 -132 152 -85 87 -126
135 -117 138 8 2 83 14 167 26 85 12 164 26 176 31 15 7 48 62 101 170 44 87
82 159 85 159 3 0 40 -70 82 -155z"/>
</g>
</svg>
