<?xml version="1.0" encoding="UTF-8"?>
<svg version="1.1" viewBox="0 0 2048 2048" width="30" height="30" xmlns="http://www.w3.org/2000/svg">
<path transform="translate(111)" d="m0 0h1486l24 7 15 6 12 7 12 9 10 9 10 11 10 15 8 17 5 15 3 16 1 26v756l-3 2h-82l-1-1-1-774-3-10-6-10-7-7-12-6-11-2h-1458l-12 3-11 7-7 8-5 10-2 12v1030l3 12 7 12 7 6 12 6 14 2 553 1 1 3v80l-3 2h-83v171h171v84l-9 1h-332l-1-1v-83l1-1 84-1 1-170h-384l-17-1-16-3-15-5-16-8-11-7-11-9-12-12-10-14-8-14-6-15-6-22v-1060l6-22 6-15 7-13 10-14 12-13 13-10 13-8 17-8 17-5z"/>
<path transform="translate(1208,768)" d="m0 0h46l26 2 35 5 28 6 25 7 27 9 29 12 30 15 22 13 24 16 21 16 14 12 10 9 8 7 18 18 7 8 12 14 12 15 12 17 10 15 9 15 13 24 11 23 13 34 7 22 8 32 6 35 3 28 1 17v36l-2 27-3 25-6 32-8 30-11 33-11 26-13 27-16 27-10 15-11 16-11 14-4 5 6 7 82 82 4-2 29-29 12-7 7-2h15l9 2 10 6 12 11 262 262 7 11 4 10v17l-4 10-6 8-9 10-114 114-9 6-9 4-4 1h-15l-14-6-10-8v-2l-4-2-260-260-9-12-4-9-1-4v-15l3-10 7-11 30-30-2-4-85-85-4 1-16 12-18 13-19 12-21 12-28 14-27 11-36 12-32 8-36 6-30 3-17 1h-33l-27-2-29-4-22-4-32-8-36-12-26-11-27-13-21-12-17-11-16-11-13-10-13-11-11-9-9-9-3-2v-2l-4-2-12-12-7-8-11-12-11-14-10-13-16-24-9-15-10-18-12-24-11-27-11-33-8-32-5-26-4-34-1-14v-49l3-32 4-27 5-24 7-26 10-30 9-22 8-18 12-22 8-14 10-16 11-16 10-13 8-10 11-13 4-5h2l2-4 24-24h2l1-3 8-7 17-14 20-15 21-14 26-15 25-13 19-8 20-8 26-8 27-7 31-6 33-4zm3 85-31 3-29 5-24 6-30 10-26 11-20 10-20 12-15 10-15 11-13 11-10 8-31 31-20 25-12 17-12 20-13 24-12 28-11 33-6 25-4 21-3 26-1 16v33l3 34 5 28 7 28 9 27 13 30 11 21 11 18 13 19 10 13 12 14 7 8 23 23 11 9 8 7 20 15 19 12 23 13 23 11 23 9 25 8 25 6 29 5 18 2 15 1h29l24-2 29-4 24-5 25-7 30-11 24-11 22-12 25-16 18-14 10-8 11-10 8-7 16-16 9-11 11-13 13-18 13-20 14-26 10-22 10-27 9-32 5-26 3-22 2-35-1-31-4-33-5-26-9-32-9-24-9-20-11-22-12-20-13-19-14-18-10-11-7-8-21-21-8-7-11-9-12-9-27-18-23-13-28-13-28-10-20-6-26-6-27-4-33-2zm526 826-55 55-3 2 2 4 204 204 4-1 1-3 4-2 9-10 36-36 3-2v-2h2l-1-4-205-205z"/>
<path transform="translate(625,171)" d="m0 0h29l22 4 16 6 17 9 13 10 12 11 12 15 9 16 6 14 4 13 3 22v16l-2 16-6 21-3 7 1 5 122 122 3 2 5-1 18-6 16-3 10-1h15l20 3 17 5 8 3 4-1 124-124-2-9-5-15-3-15-1-8v-18l3-20 5-16 7-16 9-14 8-10 6-7h2l1-3 11-9 16-10 15-7 18-5 12-2h30l21 4 16 6 17 9 11 8 10 9 8 8 9 12 9 16 6 15 5 21 1 6v26l-4 22-7 19-8 15-12 16-13 13-15 11-15 8-16 6-17 4-23 2-14-1-23-5-13-5h-5l-7 8-115 115-2 1 1 7 6 19 3 15 1 10-1 22-4 20-8 20-9 16-11 14-12 12-14 10-16 9-17 6-18 4-7 1h-24l-21-4-15-5-16-8-11-7-15-13-11-12-9-14-8-15-5-15-4-20-1-9v-10l3-23 5-18 4-10-16-16v-2l-4-2v-2l-4-2v-2l-4-2v-2l-4-2v-2l-4-2v-2l-4-2v-2l-4-2-28-28v-2l-4-2v-2l-4-2v-2l-4-2v-2l-4-2v-2l-4-2v-2l-4-2v-2l-4-2v-2l-4-2v-2l-4-2v-2l-4-2v-2l-4-2v-2l-4-2-4-5-7-1-13 5-22 5-18 1-20-2-20-5-10-4h-5l-4 5h-2v2h-2l-2 4-134 134h-2l-2 4h-2l-2 4h-2l-2 4h-2l-2 4-7 7-4-1-58-58 6-7 163-163-1-5-6-18-4-20v-25l3-19 6-18 8-16 10-15 14-15 12-10 15-9 12-6 20-6zm8 85-10 3-10 6-8 8-6 12-2 10 1 13 4 11 7 9 8 7 8 4 8 2h14l12-4 9-6 7-8 5-9 2-8v-17l-5-12-6-8-8-7-8-4-10-2zm597 0-14 5-10 8-6 8-4 10-1 4v15l4 12 6 9 8 7 10 5 9 2h12l12-4 9-6 7-7 5-10 3-12v-8l-3-12-6-10-5-5-6-5-8-4-8-2zm-300 299-11 4-9 6-7 8-5 11-2 9v11l4 12 6 9 7 7 12 6 8 2h9l12-3 8-4 10-9 6-10 3-10v-13l-4-13-6-9-9-8-11-5-4-1z"/>
<path transform="translate(1238,938)" d="m0 0 31 2 27 4 25 6 24 8 27 12 18 10 21 14 13 10 13 11 8 8 3 2v2l4 2v2l3 1 9 11 8 9 14 19 13 22 8 15 10 24 8 24 6 25 4 29 1 26-1 1h-83l-2-4-2-24-5-26-9-27-9-19-12-20-13-17-2-4h-2l-7-8-9-9-14-11-13-9-13-8-16-8-15-6-19-6-20-4-17-2-15-1-1-1v-84z"/>
<path transform="translate(171,896)" d="m0 0h84l1 1 1 91 4 12 6 9 9 8 13 5 6 1 88 1 1 1v83l-1 1h-94l-15-2-19-5-16-7-13-8-10-8-12-11-10-12-10-17-5-11-5-16-3-16-1-14v-85z"/>
<path transform="translate(171,725)" d="m0 0h83l2 1v83l-1 1h-84l-1-6v-77z"/>
</svg>
